<svg xmlns="http://www.w3.org/2000/svg" viewBox="0 0 100 100" fill="currentColor">
  <!-- Unraid logo representation -->
  <defs>
    <linearGradient id="unraidGradient" x1="0%" y1="0%" x2="100%" y2="100%">
      <stop offset="0%" style="stop-color:#ff6900;stop-opacity:1" />
      <stop offset="100%" style="stop-color:#ff8c00;stop-opacity:1" />
    </linearGradient>
  </defs>
  
  <!-- Server rack representation -->
  <rect x="20" y="15" width="60" height="70" rx="4" ry="4" fill="url(#unraidGradient)" stroke="none"/>
  
  <!-- Drive bays -->
  <rect x="25" y="20" width="50" height="6" rx="2" ry="2" fill="rgba(255,255,255,0.9)"/>
  <rect x="25" y="30" width="50" height="6" rx="2" ry="2" fill="rgba(255,255,255,0.9)"/>
  <rect x="25" y="40" width="50" height="6" rx="2" ry="2" fill="rgba(255,255,255,0.9)"/>
  <rect x="25" y="50" width="50" height="6" rx="2" ry="2" fill="rgba(255,255,255,0.9)"/>
  <rect x="25" y="60" width="50" height="6" rx="2" ry="2" fill="rgba(255,255,255,0.9)"/>
  <rect x="25" y="70" width="50" height="6" rx="2" ry="2" fill="rgba(255,255,255,0.9)"/>
  
  <!-- Status LEDs -->
  <circle cx="72" cy="23" r="2" fill="#00ff00"/>
  <circle cx="72" cy="33" r="2" fill="#00ff00"/>
  <circle cx="72" cy="43" r="2" fill="#00ff00"/>
  <circle cx="72" cy="53" r="2" fill="#ffff00"/>
  <circle cx="72" cy="63" r="2" fill="#00ff00"/>
  <circle cx="72" cy="73" r="2" fill="#00ff00"/>
  
  <!-- Power button -->
  <circle cx="50" cy="90" r="4" fill="rgba(255,255,255,0.9)" stroke="url(#unraidGradient)" stroke-width="2"/>
  <circle cx="50" cy="90" r="2" fill="url(#unraidGradient)"/>
</svg>